<svg version="1.2" xmlns="http://www.w3.org/2000/svg" viewBox="0 0 279 288" width="279" height="288"><style>.a{fill:#0c7f99}</style><path class="a" d="m111.3 67.2h64.4c-15.4 63.8-25.1 105.4-25.1 151 0 8-3.4 36 16.3 48.5 9.9 6.3 29.3 10.1 29.3 0.4 0-2.8 0-4-4-12.5-15.4-39.3-15.4-88.3-15.4-92.3 0-3.4 0-43.9 12-95.1h63.8c7.4 0 26.2 0 26.2-18.2 0-12.5-10.8-12.5-21.1-12.5h-187.4c-13.1 0-24-0.6-38.9-12.7-14.1-11.7-10.9-23.9-25.6-23.5-7 0.2-7.4 13.4-2.5 24.1 9.7 20.9 31.8 35.6 36 37 15.3 4.9 17.6 5.5 26.4 5.9h32.5c-12.5 42.7-26.8 92.3-73.5 192-4.6 9.1-4.6 10.3-4.6 13.7 0 12 10.3 14.8 15.4 14.8 16.5 0 21.1-14.8 27.9-38.7 9.1-29.1 9.1-30.2 14.8-53z"/><path  d="m125.6 55.5c2.5 1.6 8.6 3.7 14.4 3.6 5.2-0.1 12.8-1.7 15.1-2.9l0.2-3.2c-5.5 2.4-13.1 3.1-15.5 3.1-1.9 0-10.5-1.8-14.1-3.5"/></svg>